<mxfile host="app.diagrams.net" modified="2021-08-02T17:36:39.803Z" agent="5.0 (Windows NT 10.0; Win64; x64) AppleWebKit/537.36 (KHTML, like Gecko) Chrome/92.0.4515.107 Safari/537.36" etag="i6qjFLj5S3tZthLojg09" version="14.9.3" type="github">
  <diagram id="sRZWRPIDmLAijYWnY7n9" name="Page-1">
    <mxGraphModel dx="929" dy="633" grid="1" gridSize="10" guides="1" tooltips="1" connect="1" arrows="1" fold="1" page="1" pageScale="1" pageWidth="850" pageHeight="1100" math="0" shadow="0">
      <root>
        <mxCell id="0" />
        <mxCell id="1" parent="0" />
        <mxCell id="ic4VRtcUcXWjQzzcy-lI-2" value="" style="rounded=0;whiteSpace=wrap;html=1;" vertex="1" parent="1">
          <mxGeometry x="220" y="200" width="320" height="180" as="geometry" />
        </mxCell>
        <mxCell id="ic4VRtcUcXWjQzzcy-lI-3" value="Abstracted proxy python package." style="rounded=0;whiteSpace=wrap;html=1;" vertex="1" parent="1">
          <mxGeometry x="265" y="250" width="230" height="120" as="geometry" />
        </mxCell>
        <mxCell id="ic4VRtcUcXWjQzzcy-lI-4" value="az &amp;lt;provisioned cluster resource type&amp;gt;&amp;nbsp; proxy" style="text;html=1;strokeColor=none;fillColor=none;align=center;verticalAlign=middle;whiteSpace=wrap;rounded=0;" vertex="1" parent="1">
          <mxGeometry x="225" y="210" width="310" height="20" as="geometry" />
        </mxCell>
      </root>
    </mxGraphModel>
  </diagram>
</mxfile>
